<?xml version="1.0" encoding="UTF-8" standalone="no"?>
<!DOCTYPE svg PUBLIC "-//W3C//DTD SVG 1.1//EN" "http://www.w3.org/Graphics/SVG/1.1/DTD/svg11.dtd">
<svg width="100%" height="100%" viewBox="0 0 1450 338" version="1.1" xmlns="http://www.w3.org/2000/svg" xmlns:xlink="http://www.w3.org/1999/xlink" xml:space="preserve" xmlns:serif="http://www.serif.com/" style="fill-rule:evenodd;clip-rule:evenodd;stroke-linejoin:round;stroke-miterlimit:2;">
    <g id="Página-1" serif:id="Página 1" transform="matrix(1.415333,0,0,0.329556,0,0)">
        <rect x="0" y="0" width="1024" height="1024" style="fill:none;"/>
        <clipPath id="_clip1">
            <rect x="0" y="0" width="1024" height="1024"/>
        </clipPath>
        <g clip-path="url(#_clip1)">
            <g id="Capa-1" serif:id="Capa 1" transform="matrix(2.943947,0,0,12.64328,-1939.152641,-9856.767717)">
                <g transform="matrix(0.492377,0,0,0.492377,577.450585,575.023063)">
                    <text x="160.033px" y="512.673px" style="font-family:'ArialMT', 'Arial', sans-serif;font-size:101.897px;fill:white;">P<tspan x="222.252px 284.47px 352.312px " y="512.673px 512.673px 512.673px ">ERÚ</tspan></text>
                </g>
                <g transform="matrix(0.492377,0,0,0.492377,577.450585,575.023063)">
                    <text x="549.278px" y="508.393px" style="font-family:'ArialMT', 'Arial', sans-serif;font-size:101.897px;fill:white;">P<tspan x="611.583px 679.511px 741.816px 804.121px " y="508.393px 508.393px 508.393px 508.393px ">RESS</tspan></text>
                </g>
                <g transform="matrix(0.492377,0,0,0.492377,577.450585,575.023063)">
                    <text x="250.236px" y="577.369px" style="font-family:'ArialMT', 'Arial', sans-serif;font-size:37.605px;fill:white;">G<tspan x="287.708px 323.088px 358.467px 391.772px 429.244px 445.461px 464.131px 499.51px 539.058px 576.53px 609.835px 628.505px 657.641px 676.312px 709.616px 744.995px 763.666px " y="577.369px 577.369px 577.369px 577.369px 577.369px 577.369px 577.369px 577.369px 577.369px 577.369px 577.369px 577.369px 577.369px 577.369px 577.369px 577.369px 577.369px ">RUPO INMOBILIARIO</tspan></text>
                </g>
                <g transform="matrix(0.492377,0,0,0.492377,839.646734,836.861894)">
                    <path d="M0,-117.3L0,-88.896C0,-88.136 -0.302,-87.406 -0.84,-86.869L-88.689,0.947C-88.992,1.25 -89.456,1.325 -89.839,1.131L-90.056,1.022C-90.391,0.853 -90.602,0.51 -90.602,0.135L-91.175,-27.889C-91.195,-28.867 -90.81,-29.806 -90.108,-30.488C-85.002,-35.446 -63.862,-57.515 -63.862,-57.515C-63.096,-58.299 -63.097,-59.551 -63.865,-60.334L-95.185,-92.28C-95.793,-92.901 -95.905,-93.854 -95.457,-94.598C-95.277,-94.897 -94.954,-95.08 -94.605,-95.08L-56.538,-95.08C-56.519,-95.08 -56.48,-95.056 -56.428,-95.016C-55.823,-94.55 -56,-93.593 -56.714,-93.32C-57.783,-92.911 -59.189,-92.22 -59.934,-91.551C-60.361,-91.167 -60.384,-90.509 -59.979,-90.102L-46.497,-76.559C-46.32,-76.381 -46.082,-76.277 -45.831,-76.267L-45.158,-76.241C-44.887,-76.231 -44.623,-76.332 -44.428,-76.522L-1.686,-118.013C-1.056,-118.625 0,-118.179 0,-117.3" style="fill:white;fill-rule:nonzero;"/>
                </g>
                <g transform="matrix(0.492377,0,0,0.492377,828.799382,824.229529)">
                    <path d="M0,-26.959L26.71,0.488C27.323,1.118 26.876,2.175 25.997,2.175L-10.244,2.175C-11.335,2.175 -11.629,0.673 -10.619,0.26C-9.227,-0.308 -7.83,-0.803 -8.176,-1.669C-8.867,-3.399 -13.796,-8.572 -16.632,-11.462C-17.806,-12.659 -17.838,-14.564 -16.702,-15.796C-12.884,-19.939 -4.676,-28.058 -3.937,-28.387C-2.254,-29.134 -1.33,-28.007 -0.095,-27.044C-0.061,-27.018 -0.029,-26.989 0,-26.959" style="fill:white;fill-rule:nonzero;"/>
                </g>
            </g>
        </g>
    </g>
</svg>
